<?xml version="1.0" standalone="no"?>
<!DOCTYPE svg PUBLIC "-//W3C//DTD SVG 1.1//EN" "http://www.w3.org/Graphics/SVG/1.1/DTD/svg11.dtd">
<svg version="1.1" viewBox="0 0 157 48" 
    xmlns="http://www.w3.org/2000/svg" 
    xmlns:xlink="http://www.w3.org/1999/xlink">
    <g fill="#ff7b0d" fill-rule="evenodd">
        <path d="M149.8 10.8a2.8 2.8 0 1 1 0-5.7 2.8 2.8 0 0 1 0 5.7"></path>
        <path d="M154.6 11.2a45.8 45.8 0 0 1-9.6 0c-.4 0-.7-.1-.7-.6a27.2 27.2 0 0 1 0-5.4c0-.4.3-.5.7-.6a45.7 45.7 0 0 1 9.6 0c.4 0 .6.2.7.6a27 27 0 0 1 0 5.4c0 .5-.3.6-.7.6zM149.8 1a7 7 0 1 0 0 14 7 7 0 0 0 0-14z"></path>
        <path d="M149.8 5a2.8 2.8 0 1 0 0 5.8 2.8 2.8 0 0 0 0-5.7M7.6 43.9c-.7 0-1-.1-1-.5v-.5l4-13.2c0-.4.2-.7.5-1a2 2 0 0 1 1-.2l4.6-.5h1.4c.3 0 .7 0 1 .2l.4-3.3-10.1 1c-1.5.2-2.7.7-3.5 1.6a8 8 0 0 0-2 4l-3.5 11-.3 2.1c0 1 .3 1.8.8 2.1.6.4 1.4.6 2.6.4l94-6.6 1.5-6.1-91.4 9.5"></path>
        <path d="M22.6 37.2a4 4 0 0 1-.6 1.6c-.2.2-.6.3-1.2.4l-1.5.1h-.9l-.2-.4v-.5l.4-1.5.5-.9 1.1-.3 2.8-.3-.4 1.8zM14 32.8a8 8 0 0 1 2.6-.7l6.2-.7c.6 0 1 .1 1 .4l-.1.4c-.1.3-.2.5-.4.6a2 2 0 0 1-.9.2l-5.6.6c-1.4.2-2.4.6-3 1.2-.7.6-1.2 1.7-1.6 3l-.2 1c-.2.6-.2 1.2-.2 1.7 0 .7.2 1.2.6 1.5.5.3 1.2.4 2.3.3l4.4-.5a5 5 0 0 0 1.9-.5c.4-.2.7-.6 1-1.2v1.4l6.2-.7-.2-1c0-.3 0-.8.2-1.3l1.4-5.5.3-2.2c0-.9-.3-1.5-.8-1.9-.6-.3-1.4-.4-2.5-.3l-11.4 1.2-1.2 3zM29.1 40.8l7.6-.8a60 60 0 0 1-.2-1.2c0-.4 0-1 .3-1.7l1-4c.2-1 .5-1.6 1-1.9a9.3 9.3 0 0 1 4.3-.8l.8.3 1-4-3 .3c-1 .1-1.7.3-2.2.7-.5.3-1 1-1.5 1.8l.3-2.1-6.3.6.2.6v.6c0 .4 0 1-.2 1.7l-1.7 6.9c-.2.8-.3 1.4-.5 1.7l-.9 1.3M44.2 36v.8c0 .9.2 1.5.8 1.8.5.3 1.2.4 2.1.3l7.4-.9 1.1-3-1 .5-1.3.2-1.8.3h-.9l-.2-.4V35l1.7-6.7 5-.6.6-2.5-5 .6.7-2.8-6.3.8L46 29l-1.5 6.3-.2.8M63 33.8l1.4-5.7c.1-.7.5-1 1.1-1.1l2.6-.3c.5 0 .8 0 .8.4v.5l-1.5 5.7c-.1.7-.5 1-1.2 1.1l-2.6.3c-.5 0-.7-.1-.7-.5v-.4zm-6.4 2c0 .7.2 1.2.7 1.5.4.3 1.1.4 2.2.3l9.7-1c1.4-.2 2.4-.6 3-1.2.7-.7 1.2-1.7 1.5-3l1.3-5.1.2-1.7c0-.7-.2-1.2-.7-1.5-.4-.3-1.2-.4-2.2-.3l-9.7 1c-1.4.2-2.4.6-3 1.2-.7.7-1.2 1.7-1.5 3l-1.3 5.1-.2 1.7zM74 36l7.6-.8a74.4 74.4 0 0 1-.3-1l.3-1.8L85 18l-7 .7a83.3 83.3 0 0 1 .3 1.2c0 .4 0 1-.2 1.7L75.4 33l-.6 1.8L74 36M94.1 29.7a4 4 0 0 1-.6 1.6c-.2.2-.6.3-1.2.4l-1.4.1h-1s-.2-.2-.2-.5l.1-.4.4-1.5c0-.4.3-.8.5-1l1-.2 2.8-.3-.4 1.8zm.9-4.4a2 2 0 0 1-1 .2l-5.6.6c-1.4.2-2.4.5-3 1.2-.7.6-1.2 1.6-1.5 3l-.3 1-.2 1.7c0 .7.2 1.2.7 1.5.4.3 1.2.4 2.2.2l4.4-.4a5 5 0 0 0 2-.5c.3-.2.6-.6 1-1.2V34l5.6-.6.6-2.4 1.3-5.6a9 9 0 0 0 .3-2c0-1-.2-1.6-.8-2-.5-.3-1.4-.4-2.5-.3l-11.4 1.2-1.1 3a8 8 0 0 1 2.6-.7l6.2-.7c.6 0 .9 0 .9.4l-.1.4c0 .3-.2.4-.3.6zM119.7 21.7a36.4 36.4 0 0 1-3.5.6l-5.4.6L112 18l6-.6c.8 0 1.4-.2 2-.1l.8.1L122 14l-16.8 1.7-6.3 25 8.8-.8-.2-1.2c0-.6.1-1.4.4-2.4l2.2-10 5.4-.6h2.1c.8 0 .9.2 1.2.3l1-4.2M124 15c-1 1-1.8 2.6-2.3 4.7l-2 8.5c-.3 1-1.3 6.6-1.3 7.2 0 1.3.3 2.1 1 2.6.6.4 1.6.6 2.9.4l12-1L136 33l-1.6.7c-.5.2-1.7.4-3.1.6l-4.3.4c-.8.1-1.2-.1-1.2-.6l.1-.5 3.6-15.9c.1-.5.3-.8.6-1 .3-.2.6-.4 1.2-.4l5.4-.6c.6 0 1.2-.1 1.6 0h.8l.9-3.6-11.9 1.2c-1.7.2-3 .8-4 1.8"></path>
    </g>
</svg>
