<?xml version="1.0" standalone="no"?>
<!DOCTYPE svg PUBLIC "-//W3C//DTD SVG 1.1//EN" "http://www.w3.org/Graphics/SVG/1.1/DTD/svg11.dtd">
<svg viewBox="0 0 1847 183" 
    xmlns="http://www.w3.org/2000/svg" width="238" height="59" data-reactid="11">
    <g fill="#F31D1D" data-reactid="12">
        <path d="M1406.148 91.581c5.712 0 10.902-.903 15.57-2.717 4.67-1.813 8.699-4.359 12.076-7.64 3.365-3.277 5.96-7.164 7.785-11.654 1.813-4.486 2.713-9.496 2.713-15.02 0-5.35-.9-10.316-2.713-14.893-1.825-4.573-4.42-8.5-7.785-11.783-3.377-3.277-7.407-5.83-12.075-7.642-4.669-1.812-9.859-2.716-15.57-2.716h-48.524V91.58h48.523zM1343 177V4h64.861c8.3 0 15.689 1.339 22.18 4.016 6.491 2.685 11.929 6.355 16.339 11.024 4.41 4.67 7.78 10.074 10.12 16.214 2.33 6.139 3.5 12.576 3.5 19.322 0 6.745-1.17 13.186-3.5 19.32-2.34 6.14-5.75 11.543-10.25 16.211-4.501 4.668-9.952 8.348-16.352 11.024-6.4 2.685-13.75 4.025-22.063 4.025h-50.083V177H1343zM1606.647 120.775l40.778-101.097 41.027 101.097h-81.805zM1656.966 4h-18.474l-65.498 159.513h-83.163V4H1475v173h109.626l17.18-42.539h91.845L1710.832 177H1728L1656.966 4zM1763.072 177v-73.918L1694 4h17.98l58.52 85.073L1829.02 4H1847l-69.072 99.082V177h-14.856M1253.39 99.628l-48.762 28.198c-2.486 1.448-4.854 2.128-6.944 2.14h-.124c-5.148-.028-8.701-4.16-8.701-11.256V62.293c0-7.082 3.548-11.218 8.684-11.259h.169c2.09.02 4.44.707 6.916 2.142l48.762 28.209c8.684 5.018 8.684 13.226 0 18.243zM1219.51 4C1171.88 4 1133 42.866 1133 90.498c0 47.634 38.88 86.502 86.51 86.502 47.627 0 86.49-38.868 86.49-86.502C1306 42.866 1267.137 4 1219.51 4zM468.943 138.616h-14.731v-34.6h13.74c10.333 0 17.537 7.952 17.532 17.423 0 8.724-7.164 17.177-16.54 17.177zm-14.731-96.772l12.343.009c6.439.005 14.06 4.95 14.076 14.084.012 8.823-5.964 15.1-14.254 15.1h-12.165V41.844zm50.616 43.335c11.49-8.505 15.848-19.118 15.763-34.928C520.474 28.463 505.809 4 467.244 4H410v173h62.596C507.46 177 527 153.926 527 124.048c0-15.805-7.544-31.192-22.172-38.87zM310.504 137.52c-25.572 0-46.433-20.807-46.433-46.291 0-25.494 20.86-46.291 46.433-46.291 25.57 0 46.425 20.797 46.425 46.29 0 25.485-20.856 46.293-46.425 46.293zM310.507 0C260.12 0 219 41.113 219 91.499 219 141.886 260.12 183 310.507 183 360.89 183 402 141.886 402 91.499 402 41.113 360.89 0 310.507 0zM623.234 137.52c-25.488 0-46.296-20.807-46.296-46.291 0-25.494 20.808-46.291 46.296-46.291 25.484 0 46.287 20.797 46.287 46.29 0 25.485-20.803 46.293-46.287 46.293zM623.509 0C573.127 0 532 41.113 532 91.499 532 141.886 573.127 183 623.51 183c50.38 0 91.49-41.114 91.49-91.501C715 41.113 673.89 0 623.51 0z" data-reactid="13"></path>
        <path d="M194.774 4.781l-44.147 73.56H87.232v38.117h43.214c-8.24 12.269-19.416 21.032-39.676 20.91-23.416-.134-45.732-15.593-45.732-48.07 0-27.573 23.72-46.07 44.792-46.058 16.1.014 35.746 4.826 49.047 26.954l23.715-39.363C142.858 9.865 120.985 0 87.232 0 38.422 1.04.122 42.932 0 88.106 0 143.389 44.166 179 88.635 179h130.238v-39.215h-53.097L247 4.78h-52.226M783.568 183C748.095 183 720 164.654 720 127.005v-5.72h44.766c0 11.433 5.234 24.067 18.332 24.067 9.286 0 17.146-7.387 17.146-16.915 0-11.443-9.527-15.248-18.814-19.304-5.24-2.383-10.472-4.528-15.716-6.674-22.848-9.53-43.093-22.872-43.093-50.52C722.621 19.062 754.288 0 784.288 0c17.143 0 36.433 6.433 47.618 20.014 9.05 11.197 11.193 20.972 11.667 34.785h-44.525c-1.43-9.765-4.763-17.154-16.195-17.154-7.851 0-15.47 5.483-15.47 13.82 0 2.624.238 5.246 1.66 7.391 4.288 7.151 27.387 16.204 34.768 19.536C827.146 89.114 845 101.272 845 128.912 845 165.845 818.33 183 783.568 183M1083.562 41.992V177h-44.878V41.992H1004V4h114v37.992h-34.438M951.098 120.234h-33.54l33.54-55.143v55.143zM935.634 4L831 177h52.15l14.465-23.94h53.272v23.91H996V4h-60.366z" data-reactid="14"></path>
    </g>
</svg>