<svg xmlns="http://www.w3.org/2000/svg" xmlns:xlink="http://www.w3.org/1999/xlink" width="167" height="33" viewBox="3 0 167 33">
  <defs>
    <path id="a" d="M-876.5-523.5h1920v1080h-1920z"/>
  </defs>
  <clipPath id="b">
    <use xlink:href="#a" overflow="visible"/>
  </clipPath>
  <g clip-path="url(#b)" fill="#F31D1D">
    <path d="M148.648 32.991c2.854 0 5.113-2.296 6.854-6.646l6.959-17.292c.104-.277.139-.452.139-.695 0-.592-.453-.939-1.252-.939h-2.68c-.801 0-1.322.348-1.6 1.148l-3.723 11.063-4.35-11.063c-.312-.801-.836-1.148-1.635-1.148h-2.715c-1.148 0-1.461.8-1.078 1.671l7.307 16.108-.521 1.147c-.732 1.565-1.428 2.227-2.262 2.227-.627 0-1.113-.312-1.496-.557-.73-.486-1.393-.277-1.844.313l-.836 1.078c-.592.731-.521 1.323.244 2.019 1.114 1.01 2.193 1.566 4.489 1.566M134.627 7.002c-2.889 0-5.115.452-7.307 2.018-.871.626-.695 1.218-.209 1.948l.662.975c.486.73 1.182.661 1.982.243 1.428-.766 2.748-1.009 4.174-1.009 2.506 0 4.107 1.287 4.107 4.07v.244c-1.463-.557-3.131-.801-4.977-.801-5.219 0-7.375 2.818-7.375 5.671 0 2.818 1.879 5.532 6.576 5.532 2.99 0 5.01-1.287 6.227-2.957.07.521.139 1.009.244 1.531.139.73.695 1.009 1.496 1.009h1.287c.869 0 1.391-.522 1.391-1.393v-8.559c.001-5.913-3.651-8.522-8.278-8.522m-1.496 15.1c-1.531 0-2.609-.626-2.609-1.983 0-1.427 1.008-2.157 3.408-2.157 1.463 0 2.68.209 3.896.487-.346 2.365-1.982 3.653-4.695 3.653M119.898 25.768l2.355-.914c.885-.338 1.309-.948 1.309-1.93V2.84c0-.982-.424-1.592-1.309-1.931l-2.355-.914c-.951-.372-1.572.102-1.572 1.151v23.47c0 1.05.621 1.525 1.572 1.152M108.045 7.002c-2.504 0-4.662 1.113-6.158 2.888-.033-.453-.104-.939-.242-1.393-.209-.73-.695-1.078-1.496-1.078h-1.74c-.869 0-1.393.487-1.393 1.427v22.615c0 .904.523 1.392 1.393 1.392h2.436c.871 0 1.391-.487 1.391-1.392v-7.968c1.393 1.496 3.271 2.4 5.672 2.4 5.08 0 8.42-3.896 8.42-9.429-.002-5.461-3.133-9.462-8.283-9.462m-1.217 14.438c-2.436 0-4.594-1.461-4.594-4.767v-.661c0-2.888 2.02-4.558 4.664-4.558 2.295 0 4.209 1.496 4.209 5.079 0 3.585-2.052 4.907-4.279 4.907M85.465 7.002c-5.845 0-9.671 4.384-9.671 9.429 0 5.288 3.652 9.463 9.671 9.463 5.811 0 9.568-4.453 9.568-9.463 0-5.22-3.652-9.429-9.568-9.429m-.033 14.438c-3.028 0-4.42-2.401-4.42-5.01 0-2.54 1.392-4.976 4.453-4.976 2.992 0 4.35 2.365 4.35 4.976-.001 2.609-1.358 5.01-4.383 5.01M65.912 7.002c-2.331 0-4.383.939-5.845 2.54V1.296c0-.904-.521-1.392-1.427-1.392h-2.4c-.835 0-1.392.487-1.392 1.392v22.788c0 .87.557 1.393 1.392 1.393h1.601c.835 0 1.392-.314 1.601-1.184.104-.417.139-.8.209-1.217 1.392 1.739 3.444 2.817 6.054 2.817 5.114 0 8.419-3.896 8.419-9.394-.001-5.462-3.132-9.497-8.212-9.497M64.625 21.44c-2.436 0-4.558-1.426-4.558-4.767v-.661c0-2.888 1.983-4.558 4.662-4.558 2.262 0 4.175 1.53 4.175 5.079 0 3.62-2.017 4.907-4.279 4.907M43.263 7.002c-5.845 0-9.672 4.384-9.672 9.429 0 5.288 3.653 9.463 9.672 9.463 5.811 0 9.568-4.453 9.568-9.463 0-5.22-3.619-9.429-9.568-9.429m-.035 14.438c-3.026 0-4.418-2.401-4.418-5.01 0-2.54 1.392-4.976 4.453-4.976 2.992 0 4.35 2.365 4.35 4.976-.001 2.609-1.358 5.01-4.385 5.01M27.78 25.477h2.401c.904 0 1.392-.522 1.392-1.393V1.296c0-.904-.487-1.392-1.392-1.392H27.78c-.904 0-1.426.487-1.426 1.392v22.788c0 .87.522 1.393 1.426 1.393M22.145 7.419h-1.601c-.835 0-1.427.348-1.601 1.113-.104.452-.104.766-.139 1.113-1.427-1.6-3.375-2.644-5.95-2.644-4.731 0-8.454 3.583-8.454 9.08 0 5.394 3.444 8.837 8.245 8.837 2.471 0 4.419-.904 5.776-2.435v1.322c0 3.2-1.914 4.836-5.532 4.836-2.123 0-3.618-.661-5.149-1.531-.312-.174-.626-.312-.904-.312-.418 0-.766.208-1.044.66l-.835 1.287c-.209.313-.313.592-.313.904 0 .349.209.696.627 1.01 2.365 1.774 5.079 2.471 8.35 2.471 6.089 0 9.916-4.176 9.916-9.498V8.811c-.001-.905-.488-1.392-1.392-1.392m-3.723 8.872c0 2.854-2.019 4.454-4.697 4.454-2.262 0-4.105-1.531-4.105-4.732 0-3.34 2.053-4.627 4.245-4.627 2.4 0 4.558 1.356 4.558 4.627v.278z"/>
  </g>
</svg>